<?xml version="1.0" encoding="utf-8"?>
<!-- Generator: Adobe Illustrator 15.0.0, SVG Export Plug-In . SVG Version: 6.00 Build 0)  -->
<!DOCTYPE svg PUBLIC "-//W3C//DTD SVG 1.1//EN" "http://www.w3.org/Graphics/SVG/1.1/DTD/svg11.dtd">
<svg version="1.1" id="Calque_5" xmlns="http://www.w3.org/2000/svg" xmlns:xlink="http://www.w3.org/1999/xlink" x="0px" y="0px"
	 width="265px" height="64px" viewBox="0 0 265 64" enable-background="new 0 0 265 64" xml:space="preserve">
<path fill="#E60028" d="M98.45,1.7l-27.1,62.35h-1.4L43.25,1.7H50L70.7,49.85L91.65,1.7H98.45z M43.2,8.65l6.1,14.2V64h-1.4
	L6.8,16.851V64H0.35V1.65h1.3l41.55,47.8V8.65z"/>
<path fill="#333333" d="M262.25,17.25V64h-1.05L230.35,28.6V64h-4.851V17.25h1.05l31.102,35.851V17.25H262.25z M208.65,29.35
	c-1.733-3.033-4.168-5.45-7.301-7.25c-3.134-1.8-6.467-2.7-10-2.7c-3.467,0-6.733,0.9-9.801,2.7c-3.133,1.8-5.566,4.233-7.3,7.3
	c-1.733,3.034-2.601,6.45-2.601,10.25c0,5.533,1.934,10.216,5.801,14.05c3.832,3.833,8.467,5.75,13.898,5.75
	c3.635,0,7-0.884,10.102-2.65c3.066-1.767,5.467-4.166,7.199-7.2c1.733-3.065,2.601-6.466,2.601-10.199
	C211.249,35.668,210.384,32.316,208.65,29.35z M216.05,39.4c0,6.832-2.366,12.633-7.1,17.398c-4.767,4.801-10.566,7.2-17.4,7.2
	c-6.967,0-12.833-2.384-17.6-7.149c-4.767-4.734-7.15-10.467-7.15-17.199c0-4.5,1.101-8.667,3.3-12.5
	c2.168-3.833,5.117-6.833,8.852-9c3.767-2.2,7.833-3.3,12.199-3.3c7.101,0,13.033,2.367,17.801,7.1
	C213.684,26.683,216.05,32.5,216.05,39.4z M158.15,17.25V64h-4.7V17.25H158.15z M131.25,14.85c2.2,0,4.268,0.55,6.2,1.65
	c1.899,1.1,3.916,3.117,6.05,6.05l-3.8,2.85c-1.767-2.333-3.25-3.867-4.45-4.6c-1.268-0.733-2.634-1.1-4.1-1.1
	c-1.867,0-3.4,0.566-4.6,1.7c-1.2,1.167-1.8,2.583-1.8,4.25c0,1,0.217,1.983,0.65,2.95c0.4,0.967,1.167,2,2.3,3.1
	c0.6,0.6,2.617,2.166,6.05,4.7c4.033,2.966,6.8,5.615,8.3,7.949s2.25,4.684,2.25,7.051c0,3.365-1.282,6.315-3.85,8.85
	c-2.566,2.5-5.7,3.75-9.4,3.75c-2.833,0-5.4-0.768-7.7-2.3c-2.3-1.5-4.434-4.033-6.4-7.601l4-2.399
	c2.767,5.166,5.983,7.75,9.65,7.75c1.567,0,3.05-0.367,4.45-1.101c1.367-0.734,2.417-1.717,3.15-2.949
	c0.7-1.233,1.05-2.535,1.05-3.9c0-1.566-0.518-3.1-1.55-4.6c-1.468-2.102-4.15-4.617-8.05-7.551s-6.316-5.051-7.25-6.351
	c-1.667-2.2-2.5-4.583-2.5-7.15c0-2.033,0.483-3.9,1.45-5.6c1-1.667,2.383-2.967,4.15-3.9C127.267,15.35,129.183,14.85,131.25,14.85
	z M111.05,17.25V64h-4.7V17.25H111.05z"/>
</svg>
